<?xml version='1.0' encoding='UTF-8'?>
<svg width="39mm" height="39mm" version="1.1" viewBox="0 0 39 39" xmlns="http://www.w3.org/2000/svg"><path d="M3,3H4V4H3zM4,3H5V4H4zM5,3H6V4H5zM6,3H7V4H6zM7,3H8V4H7zM8,3H9V4H8zM9,3H10V4H9zM12,3H13V4H12zM15,3H16V4H15zM20,3H21V4H20zM21,3H22V4H21zM24,3H25V4H24zM25,3H26V4H25zM29,3H30V4H29zM30,3H31V4H30zM31,3H32V4H31zM32,3H33V4H32zM33,3H34V4H33zM34,3H35V4H34zM35,3H36V4H35zM3,4H4V5H3zM9,4H10V5H9zM11,4H12V5H11zM13,4H14V5H13zM15,4H16V5H15zM16,4H17V5H16zM17,4H18V5H17zM19,4H20V5H19zM21,4H22V5H21zM23,4H24V5H23zM25,4H26V5H25zM27,4H28V5H27zM29,4H30V5H29zM35,4H36V5H35zM3,5H4V6H3zM5,5H6V6H5zM6,5H7V6H6zM7,5H8V6H7zM9,5H10V6H9zM11,5H12V6H11zM13,5H14V6H13zM15,5H16V6H15zM16,5H17V6H16zM18,5H19V6H18zM21,5H22V6H21zM23,5H24V6H23zM24,5H25V6H24zM26,5H27V6H26zM29,5H30V6H29zM31,5H32V6H31zM32,5H33V6H32zM33,5H34V6H33zM35,5H36V6H35zM3,6H4V7H3zM5,6H6V7H5zM6,6H7V7H6zM7,6H8V7H7zM9,6H10V7H9zM11,6H12V7H11zM13,6H14V7H13zM14,6H15V7H14zM18,6H19V7H18zM20,6H21V7H20zM22,6H23V7H22zM24,6H25V7H24zM27,6H28V7H27zM29,6H30V7H29zM31,6H32V7H31zM32,6H33V7H32zM33,6H34V7H33zM35,6H36V7H35zM3,7H4V8H3zM5,7H6V8H5zM6,7H7V8H6zM7,7H8V8H7zM9,7H10V8H9zM12,7H13V8H12zM15,7H16V8H15zM18,7H19V8H18zM21,7H22V8H21zM22,7H23V8H22zM23,7H24V8H23zM24,7H25V8H24zM25,7H26V8H25zM26,7H27V8H26zM29,7H30V8H29zM31,7H32V8H31zM32,7H33V8H32zM33,7H34V8H33zM35,7H36V8H35zM3,8H4V9H3zM9,8H10V9H9zM13,8H14V9H13zM17,8H18V9H17zM19,8H20V9H19zM21,8H22V9H21zM23,8H24V9H23zM27,8H28V9H27zM29,8H30V9H29zM35,8H36V9H35zM3,9H4V10H3zM4,9H5V10H4zM5,9H6V10H5zM6,9H7V10H6zM7,9H8V10H7zM8,9H9V10H8zM9,9H10V10H9zM11,9H12V10H11zM13,9H14V10H13zM15,9H16V10H15zM17,9H18V10H17zM19,9H20V10H19zM21,9H22V10H21zM23,9H24V10H23zM25,9H26V10H25zM27,9H28V10H27zM29,9H30V10H29zM30,9H31V10H30zM31,9H32V10H31zM32,9H33V10H32zM33,9H34V10H33zM34,9H35V10H34zM35,9H36V10H35zM11,10H12V11H11zM12,10H13V11H12zM13,10H14V11H13zM15,10H16V11H15zM23,10H24V11H23zM25,10H26V11H25zM26,10H27V11H26zM3,11H4V12H3zM9,11H10V12H9zM11,11H12V12H11zM12,11H13V12H12zM15,11H16V12H15zM16,11H17V12H16zM17,11H18V12H17zM18,11H19V12H18zM20,11H21V12H20zM25,11H26V12H25zM28,11H29V12H28zM29,11H30V12H29zM32,11H33V12H32zM33,11H34V12H33zM34,11H35V12H34zM4,12H5V13H4zM5,12H6V13H5zM6,12H7V13H6zM7,12H8V13H7zM11,12H12V13H11zM12,12H13V13H12zM13,12H14V13H13zM17,12H18V13H17zM18,12H19V13H18zM20,12H21V13H20zM21,12H22V13H21zM22,12H23V13H22zM23,12H24V13H23zM26,12H27V13H26zM31,12H32V13H31zM32,12H33V13H32zM33,12H34V13H33zM3,13H4V14H3zM4,13H5V14H4zM7,13H8V14H7zM8,13H9V14H8zM9,13H10V14H9zM10,13H11V14H10zM12,13H13V14H12zM13,13H14V14H13zM14,13H15V14H14zM18,13H19V14H18zM19,13H20V14H19zM20,13H21V14H20zM23,13H24V14H23zM28,13H29V14H28zM31,13H32V14H31zM33,13H34V14H33zM3,14H4V15H3zM5,14H6V15H5zM6,14H7V15H6zM13,14H14V15H13zM17,14H18V15H17zM18,14H19V15H18zM19,14H20V15H19zM26,14H27V15H26zM30,14H31V15H30zM31,14H32V15H31zM32,14H33V15H32zM33,14H34V15H33zM35,14H36V15H35zM4,15H5V16H4zM6,15H7V16H6zM9,15H10V16H9zM10,15H11V16H10zM12,15H13V16H12zM13,15H14V16H13zM14,15H15V16H14zM16,15H17V16H16zM17,15H18V16H17zM18,15H19V16H18zM19,15H20V16H19zM20,15H21V16H20zM21,15H22V16H21zM23,15H24V16H23zM27,15H28V16H27zM29,15H30V16H29zM30,15H31V16H30zM34,15H35V16H34zM35,15H36V16H35zM4,16H5V17H4zM7,16H8V17H7zM12,16H13V17H12zM14,16H15V17H14zM16,16H17V17H16zM17,16H18V17H17zM19,16H20V17H19zM21,16H22V17H21zM22,16H23V17H22zM23,16H24V17H23zM26,16H27V17H26zM29,16H30V17H29zM30,16H31V17H30zM32,16H33V17H32zM34,16H35V17H34zM35,16H36V17H35zM6,17H7V18H6zM7,17H8V18H7zM9,17H10V18H9zM12,17H13V18H12zM15,17H16V18H15zM16,17H17V18H16zM17,17H18V18H17zM24,17H25V18H24zM25,17H26V18H25zM28,17H29V18H28zM29,17H30V18H29zM34,17H35V18H34zM3,18H4V19H3zM4,18H5V19H4zM5,18H6V19H5zM7,18H8V19H7zM8,18H9V19H8zM10,18H11V19H10zM12,18H13V19H12zM14,18H15V19H14zM16,18H17V19H16zM17,18H18V19H17zM18,18H19V19H18zM21,18H22V19H21zM22,18H23V19H22zM23,18H24V19H23zM25,18H26V19H25zM28,18H29V19H28zM31,18H32V19H31zM32,18H33V19H32zM33,18H34V19H33zM35,18H36V19H35zM3,19H4V20H3zM4,19H5V20H4zM7,19H8V20H7zM8,19H9V20H8zM9,19H10V20H9zM10,19H11V20H10zM12,19H13V20H12zM13,19H14V20H13zM16,19H17V20H16zM20,19H21V20H20zM25,19H26V20H25zM26,19H27V20H26zM27,19H28V20H27zM28,19H29V20H28zM30,19H31V20H30zM31,19H32V20H31zM35,19H36V20H35zM3,20H4V21H3zM4,20H5V21H4zM5,20H6V21H5zM8,20H9V21H8zM10,20H11V21H10zM11,20H12V21H11zM12,20H13V21H12zM15,20H16V21H15zM16,20H17V21H16zM17,20H18V21H17zM18,20H19V21H18zM19,20H20V21H19zM20,20H21V21H20zM21,20H22V21H21zM22,20H23V21H22zM23,20H24V21H23zM24,20H25V21H24zM26,20H27V21H26zM29,20H30V21H29zM32,20H33V21H32zM33,20H34V21H33zM35,20H36V21H35zM3,21H4V22H3zM5,21H6V22H5zM6,21H7V22H6zM8,21H9V22H8zM9,21H10V22H9zM12,21H13V22H12zM14,21H15V22H14zM15,21H16V22H15zM17,21H18V22H17zM18,21H19V22H18zM19,21H20V22H19zM22,21H23V22H22zM26,21H27V22H26zM27,21H28V22H27zM28,21H29V22H28zM29,21H30V22H29zM30,21H31V22H30zM32,21H33V22H32zM33,21H34V22H33zM35,21H36V22H35zM3,22H4V23H3zM4,22H5V23H4zM5,22H6V23H5zM6,22H7V23H6zM10,22H11V23H10zM14,22H15V23H14zM16,22H17V23H16zM18,22H19V23H18zM19,22H20V23H19zM20,22H21V23H20zM21,22H22V23H21zM25,22H26V23H25zM26,22H27V23H26zM28,22H29V23H28zM31,22H32V23H31zM32,22H33V23H32zM33,22H34V23H33zM34,22H35V23H34zM3,23H4V24H3zM4,23H5V24H4zM6,23H7V24H6zM7,23H8V24H7zM9,23H10V24H9zM12,23H13V24H12zM16,23H17V24H16zM19,23H20V24H19zM23,23H24V24H23zM25,23H26V24H25zM26,23H27V24H26zM27,23H28V24H27zM28,23H29V24H28zM30,23H31V24H30zM31,23H32V24H31zM32,23H33V24H32zM34,23H35V24H34zM3,24H4V25H3zM5,24H6V25H5zM7,24H8V25H7zM8,24H9V25H8zM10,24H11V25H10zM13,24H14V25H13zM17,24H18V25H17zM19,24H20V25H19zM21,24H22V25H21zM22,24H23V25H22zM24,24H25V25H24zM25,24H26V25H25zM26,24H27V25H26zM27,24H28V25H27zM30,24H31V25H30zM31,24H32V25H31zM3,25H4V26H3zM7,25H8V26H7zM9,25H10V26H9zM10,25H11V26H10zM15,25H16V26H15zM17,25H18V26H17zM18,25H19V26H18zM19,25H20V26H19zM21,25H22V26H21zM23,25H24V26H23zM24,25H25V26H24zM27,25H28V26H27zM29,25H30V26H29zM31,25H32V26H31zM32,25H33V26H32zM33,25H34V26H33zM34,25H35V26H34zM3,26H4V27H3zM5,26H6V27H5zM6,26H7V27H6zM10,26H11V27H10zM15,26H16V27H15zM17,26H18V27H17zM22,26H23V27H22zM23,26H24V27H23zM25,26H26V27H25zM28,26H29V27H28zM30,26H31V27H30zM31,26H32V27H31zM32,26H33V27H32zM33,26H34V27H33zM35,26H36V27H35zM3,27H4V28H3zM4,27H5V28H4zM5,27H6V28H5zM8,27H9V28H8zM9,27H10V28H9zM11,27H12V28H11zM13,27H14V28H13zM14,27H15V28H14zM15,27H16V28H15zM18,27H19V28H18zM19,27H20V28H19zM23,27H24V28H23zM26,27H27V28H26zM27,27H28V28H27zM28,27H29V28H28zM29,27H30V28H29zM30,27H31V28H30zM31,27H32V28H31zM32,27H33V28H32zM35,27H36V28H35zM11,28H12V29H11zM13,28H14V29H13zM16,28H17V29H16zM18,28H19V29H18zM21,28H22V29H21zM22,28H23V29H22zM23,28H24V29H23zM24,28H25V29H24zM25,28H26V29H25zM27,28H28V29H27zM31,28H32V29H31zM33,28H34V29H33zM34,28H35V29H34zM35,28H36V29H35zM3,29H4V30H3zM4,29H5V30H4zM5,29H6V30H5zM6,29H7V30H6zM7,29H8V30H7zM8,29H9V30H8zM9,29H10V30H9zM12,29H13V30H12zM18,29H19V30H18zM21,29H22V30H21zM23,29H24V30H23zM24,29H25V30H24zM26,29H27V30H26zM27,29H28V30H27zM29,29H30V30H29zM31,29H32V30H31zM33,29H34V30H33zM34,29H35V30H34zM3,30H4V31H3zM9,30H10V31H9zM13,30H14V31H13zM14,30H15V31H14zM15,30H16V31H15zM26,30H27V31H26zM27,30H28V31H27zM31,30H32V31H31zM32,30H33V31H32zM33,30H34V31H33zM35,30H36V31H35zM3,31H4V32H3zM5,31H6V32H5zM6,31H7V32H6zM7,31H8V32H7zM9,31H10V32H9zM12,31H13V32H12zM15,31H16V32H15zM16,31H17V32H16zM17,31H18V32H17zM18,31H19V32H18zM21,31H22V32H21zM25,31H26V32H25zM27,31H28V32H27zM28,31H29V32H28zM29,31H30V32H29zM30,31H31V32H30zM31,31H32V32H31zM32,31H33V32H32zM35,31H36V32H35zM3,32H4V33H3zM5,32H6V33H5zM6,32H7V33H6zM7,32H8V33H7zM9,32H10V33H9zM12,32H13V33H12zM13,32H14V33H13zM17,32H18V33H17zM19,32H20V33H19zM22,32H23V33H22zM28,32H29V33H28zM30,32H31V33H30zM31,32H32V33H31zM32,32H33V33H32zM34,32H35V33H34zM35,32H36V33H35zM3,33H4V34H3zM5,33H6V34H5zM6,33H7V34H6zM7,33H8V34H7zM9,33H10V34H9zM12,33H13V34H12zM13,33H14V34H13zM16,33H17V34H16zM17,33H18V34H17zM19,33H20V34H19zM20,33H21V34H20zM21,33H22V34H21zM22,33H23V34H22zM23,33H24V34H23zM28,33H29V34H28zM30,33H31V34H30zM31,33H32V34H31zM34,33H35V34H34zM35,33H36V34H35zM3,34H4V35H3zM9,34H10V35H9zM12,34H13V35H12zM14,34H15V35H14zM16,34H17V35H16zM17,34H18V35H17zM18,34H19V35H18zM19,34H20V35H19zM23,34H24V35H23zM30,34H31V35H30zM31,34H32V35H31zM33,34H34V35H33zM3,35H4V36H3zM4,35H5V36H4zM5,35H6V36H5zM6,35H7V36H6zM7,35H8V36H7zM8,35H9V36H8zM9,35H10V36H9zM11,35H12V36H11zM13,35H14V36H13zM14,35H15V36H14zM16,35H17V36H16zM17,35H18V36H17zM20,35H21V36H20zM25,35H26V36H25zM26,35H27V36H26zM27,35H28V36H27zM28,35H29V36H28zM30,35H31V36H30zM34,35H35V36H34z" id="qr-path" fill="#000000" fill-opacity="1" fill-rule="nonzero" stroke="none"/></svg>