<?xml version='1.0' encoding='UTF-8'?>
<svg width="39mm" height="39mm" version="1.1" viewBox="0 0 39 39" xmlns="http://www.w3.org/2000/svg"><path d="M3,3H4V4H3zM4,3H5V4H4zM5,3H6V4H5zM6,3H7V4H6zM7,3H8V4H7zM8,3H9V4H8zM9,3H10V4H9zM12,3H13V4H12zM16,3H17V4H16zM17,3H18V4H17zM18,3H19V4H18zM20,3H21V4H20zM21,3H22V4H21zM24,3H25V4H24zM25,3H26V4H25zM29,3H30V4H29zM30,3H31V4H30zM31,3H32V4H31zM32,3H33V4H32zM33,3H34V4H33zM34,3H35V4H34zM35,3H36V4H35zM3,4H4V5H3zM9,4H10V5H9zM11,4H12V5H11zM13,4H14V5H13zM15,4H16V5H15zM19,4H20V5H19zM21,4H22V5H21zM29,4H30V5H29zM35,4H36V5H35zM3,5H4V6H3zM5,5H6V6H5zM6,5H7V6H6zM7,5H8V6H7zM9,5H10V6H9zM11,5H12V6H11zM12,5H13V6H12zM14,5H15V6H14zM17,5H18V6H17zM18,5H19V6H18zM19,5H20V6H19zM22,5H23V6H22zM23,5H24V6H23zM24,5H25V6H24zM25,5H26V6H25zM29,5H30V6H29zM31,5H32V6H31zM32,5H33V6H32zM33,5H34V6H33zM35,5H36V6H35zM3,6H4V7H3zM5,6H6V7H5zM6,6H7V7H6zM7,6H8V7H7zM9,6H10V7H9zM11,6H12V7H11zM12,6H13V7H12zM13,6H14V7H13zM14,6H15V7H14zM15,6H16V7H15zM17,6H18V7H17zM19,6H20V7H19zM21,6H22V7H21zM22,6H23V7H22zM23,6H24V7H23zM25,6H26V7H25zM27,6H28V7H27zM29,6H30V7H29zM31,6H32V7H31zM32,6H33V7H32zM33,6H34V7H33zM35,6H36V7H35zM3,7H4V8H3zM5,7H6V8H5zM6,7H7V8H6zM7,7H8V8H7zM9,7H10V8H9zM12,7H13V8H12zM17,7H18V8H17zM18,7H19V8H18zM19,7H20V8H19zM20,7H21V8H20zM23,7H24V8H23zM24,7H25V8H24zM25,7H26V8H25zM29,7H30V8H29zM31,7H32V8H31zM32,7H33V8H32zM33,7H34V8H33zM35,7H36V8H35zM3,8H4V9H3zM9,8H10V9H9zM12,8H13V9H12zM14,8H15V9H14zM15,8H16V9H15zM18,8H19V9H18zM20,8H21V9H20zM22,8H23V9H22zM24,8H25V9H24zM26,8H27V9H26zM27,8H28V9H27zM29,8H30V9H29zM35,8H36V9H35zM3,9H4V10H3zM4,9H5V10H4zM5,9H6V10H5zM6,9H7V10H6zM7,9H8V10H7zM8,9H9V10H8zM9,9H10V10H9zM11,9H12V10H11zM13,9H14V10H13zM15,9H16V10H15zM17,9H18V10H17zM19,9H20V10H19zM21,9H22V10H21zM23,9H24V10H23zM25,9H26V10H25zM27,9H28V10H27zM29,9H30V10H29zM30,9H31V10H30zM31,9H32V10H31zM32,9H33V10H32zM33,9H34V10H33zM34,9H35V10H34zM35,9H36V10H35zM11,10H12V11H11zM12,10H13V11H12zM15,10H16V11H15zM17,10H18V11H17zM18,10H19V11H18zM19,10H20V11H19zM21,10H22V11H21zM22,10H23V11H22zM23,10H24V11H23zM26,10H27V11H26zM3,11H4V12H3zM9,11H10V12H9zM11,11H12V12H11zM12,11H13V12H12zM15,11H16V12H15zM17,11H18V12H17zM20,11H21V12H20zM22,11H23V12H22zM26,11H27V12H26zM28,11H29V12H28zM29,11H30V12H29zM32,11H33V12H32zM33,11H34V12H33zM34,11H35V12H34zM3,12H4V13H3zM4,12H5V13H4zM5,12H6V13H5zM6,12H7V13H6zM7,12H8V13H7zM8,12H9V13H8zM11,12H12V13H11zM14,12H15V13H14zM16,12H17V13H16zM17,12H18V13H17zM18,12H19V13H18zM20,12H21V13H20zM21,12H22V13H21zM22,12H23V13H22zM24,12H25V13H24zM25,12H26V13H25zM26,12H27V13H26zM31,12H32V13H31zM32,12H33V13H32zM33,12H34V13H33zM3,13H4V14H3zM4,13H5V14H4zM5,13H6V14H5zM6,13H7V14H6zM7,13H8V14H7zM9,13H10V14H9zM10,13H11V14H10zM11,13H12V14H11zM12,13H13V14H12zM13,13H14V14H13zM16,13H17V14H16zM17,13H18V14H17zM18,13H19V14H18zM20,13H21V14H20zM23,13H24V14H23zM25,13H26V14H25zM27,13H28V14H27zM31,13H32V14H31zM33,13H34V14H33zM34,13H35V14H34zM3,14H4V15H3zM5,14H6V15H5zM8,14H9V15H8zM11,14H12V15H11zM15,14H16V15H15zM16,14H17V15H16zM18,14H19V15H18zM19,14H20V15H19zM20,14H21V15H20zM21,14H22V15H21zM24,14H25V15H24zM27,14H28V15H27zM28,14H29V15H28zM30,14H31V15H30zM31,14H32V15H31zM32,14H33V15H32zM33,14H34V15H33zM34,14H35V15H34zM5,15H6V16H5zM9,15H10V16H9zM10,15H11V16H10zM12,15H13V16H12zM13,15H14V16H13zM15,15H16V16H15zM16,15H17V16H16zM18,15H19V16H18zM20,15H21V16H20zM24,15H25V16H24zM27,15H28V16H27zM29,15H30V16H29zM30,15H31V16H30zM31,15H32V16H31zM34,15H35V16H34zM35,15H36V16H35zM3,16H4V17H3zM4,16H5V17H4zM6,16H7V17H6zM8,16H9V17H8zM13,16H14V17H13zM20,16H21V17H20zM21,16H22V17H21zM24,16H25V17H24zM27,16H28V17H27zM30,16H31V17H30zM32,16H33V17H32zM33,16H34V17H33zM34,16H35V17H34zM35,16H36V17H35zM3,17H4V18H3zM5,17H6V18H5zM7,17H8V18H7zM9,17H10V18H9zM11,17H12V18H11zM16,17H17V18H16zM17,17H18V18H17zM18,17H19V18H18zM19,17H20V18H19zM20,17H21V18H20zM23,17H24V18H23zM25,17H26V18H25zM27,17H28V18H27zM28,17H29V18H28zM29,17H30V18H29zM31,17H32V18H31zM33,17H34V18H33zM34,17H35V18H34zM3,18H4V19H3zM5,18H6V19H5zM6,18H7V19H6zM8,18H9V19H8zM10,18H11V19H10zM11,18H12V19H11zM16,18H17V19H16zM19,18H20V19H19zM23,18H24V19H23zM25,18H26V19H25zM28,18H29V19H28zM30,18H31V19H30zM32,18H33V19H32zM33,18H34V19H33zM35,18H36V19H35zM3,19H4V20H3zM4,19H5V20H4zM5,19H6V20H5zM6,19H7V20H6zM8,19H9V20H8zM9,19H10V20H9zM12,19H13V20H12zM13,19H14V20H13zM14,19H15V20H14zM15,19H16V20H15zM17,19H18V20H17zM18,19H19V20H18zM19,19H20V20H19zM20,19H21V20H20zM25,19H26V20H25zM27,19H28V20H27zM28,19H29V20H28zM30,19H31V20H30zM31,19H32V20H31zM35,19H36V20H35zM4,20H5V21H4zM6,20H7V21H6zM8,20H9V21H8zM11,20H12V21H11zM12,20H13V21H12zM16,20H17V21H16zM17,20H18V21H17zM18,20H19V21H18zM19,20H20V21H19zM23,20H24V21H23zM26,20H27V21H26zM29,20H30V21H29zM32,20H33V21H32zM33,20H34V21H33zM35,20H36V21H35zM4,21H5V22H4zM5,21H6V22H5zM7,21H8V22H7zM8,21H9V22H8zM9,21H10V22H9zM13,21H14V22H13zM16,21H17V22H16zM18,21H19V22H18zM20,21H21V22H20zM21,21H22V22H21zM22,21H23V22H22zM24,21H25V22H24zM25,21H26V22H25zM26,21H27V22H26zM27,21H28V22H27zM29,21H30V22H29zM30,21H31V22H30zM32,21H33V22H32zM33,21H34V22H33zM35,21H36V22H35zM3,22H4V23H3zM6,22H7V23H6zM7,22H8V23H7zM8,22H9V23H8zM10,22H11V23H10zM11,22H12V23H11zM13,22H14V23H13zM14,22H15V23H14zM15,22H16V23H15zM16,22H17V23H16zM17,22H18V23H17zM22,22H23V23H22zM23,22H24V23H23zM25,22H26V23H25zM31,22H32V23H31zM32,22H33V23H32zM33,22H34V23H33zM34,22H35V23H34zM5,23H6V24H5zM6,23H7V24H6zM9,23H10V24H9zM10,23H11V24H10zM15,23H16V24H15zM17,23H18V24H17zM21,23H22V24H21zM22,23H23V24H22zM24,23H25V24H24zM27,23H28V24H27zM28,23H29V24H28zM30,23H31V24H30zM31,23H32V24H31zM32,23H33V24H32zM34,23H35V24H34zM35,23H36V24H35zM3,24H4V25H3zM4,24H5V25H4zM5,24H6V25H5zM11,24H12V25H11zM12,24H13V25H12zM13,24H14V25H13zM14,24H15V25H14zM15,24H16V25H15zM16,24H17V25H16zM17,24H18V25H17zM29,24H30V25H29zM31,24H32V25H31zM33,24H34V25H33zM3,25H4V26H3zM6,25H7V26H6zM8,25H9V26H8zM9,25H10V26H9zM10,25H11V26H10zM13,25H14V26H13zM20,25H21V26H20zM22,25H23V26H22zM28,25H29V26H28zM30,25H31V26H30zM32,25H33V26H32zM33,25H34V26H33zM34,25H35V26H34zM3,26H4V27H3zM5,26H6V27H5zM8,26H9V27H8zM11,26H12V27H11zM12,26H13V27H12zM13,26H14V27H13zM15,26H16V27H15zM17,26H18V27H17zM18,26H19V27H18zM19,26H20V27H19zM21,26H22V27H21zM22,26H23V27H22zM23,26H24V27H23zM25,26H26V27H25zM27,26H28V27H27zM28,26H29V27H28zM29,26H30V27H29zM30,26H31V27H30zM32,26H33V27H32zM33,26H34V27H33zM34,26H35V27H34zM35,26H36V27H35zM3,27H4V28H3zM4,27H5V28H4zM6,27H7V28H6zM7,27H8V28H7zM8,27H9V28H8zM9,27H10V28H9zM11,27H12V28H11zM12,27H13V28H12zM15,27H16V28H15zM16,27H17V28H16zM19,27H20V28H19zM23,27H24V28H23zM26,27H27V28H26zM27,27H28V28H27zM28,27H29V28H28zM29,27H30V28H29zM30,27H31V28H30zM31,27H32V28H31zM32,27H33V28H32zM34,27H35V28H34zM11,28H12V29H11zM15,28H16V29H15zM17,28H18V29H17zM18,28H19V29H18zM19,28H20V29H19zM20,28H21V29H20zM21,28H22V29H21zM22,28H23V29H22zM24,28H25V29H24zM26,28H27V29H26zM27,28H28V29H27zM31,28H32V29H31zM33,28H34V29H33zM35,28H36V29H35zM3,29H4V30H3zM4,29H5V30H4zM5,29H6V30H5zM6,29H7V30H6zM7,29H8V30H7zM8,29H9V30H8zM9,29H10V30H9zM12,29H13V30H12zM14,29H15V30H14zM15,29H16V30H15zM18,29H19V30H18zM20,29H21V30H20zM23,29H24V30H23zM25,29H26V30H25zM26,29H27V30H26zM27,29H28V30H27zM29,29H30V30H29zM31,29H32V30H31zM33,29H34V30H33zM3,30H4V31H3zM9,30H10V31H9zM12,30H13V31H12zM13,30H14V31H13zM14,30H15V31H14zM15,30H16V31H15zM17,30H18V31H17zM20,30H21V31H20zM21,30H22V31H21zM24,30H25V31H24zM25,30H26V31H25zM26,30H27V31H26zM27,30H28V31H27zM31,30H32V31H31zM32,30H33V31H32zM33,30H34V31H33zM34,30H35V31H34zM35,30H36V31H35zM3,31H4V32H3zM5,31H6V32H5zM6,31H7V32H6zM7,31H8V32H7zM9,31H10V32H9zM12,31H13V32H12zM13,31H14V32H13zM15,31H16V32H15zM16,31H17V32H16zM18,31H19V32H18zM19,31H20V32H19zM22,31H23V32H22zM23,31H24V32H23zM24,31H25V32H24zM25,31H26V32H25zM27,31H28V32H27zM28,31H29V32H28zM29,31H30V32H29zM30,31H31V32H30zM31,31H32V32H31zM32,31H33V32H32zM35,31H36V32H35zM3,32H4V33H3zM5,32H6V33H5zM6,32H7V33H6zM7,32H8V33H7zM9,32H10V33H9zM13,32H14V33H13zM16,32H17V33H16zM21,32H22V33H21zM24,32H25V33H24zM26,32H27V33H26zM27,32H28V33H27zM28,32H29V33H28zM30,32H31V33H30zM31,32H32V33H31zM33,32H34V33H33zM35,32H36V33H35zM3,33H4V34H3zM5,33H6V34H5zM6,33H7V34H6zM7,33H8V34H7zM9,33H10V34H9zM14,33H15V34H14zM15,33H16V34H15zM18,33H19V34H18zM20,33H21V34H20zM21,33H22V34H21zM22,33H23V34H22zM26,33H27V34H26zM28,33H29V34H28zM30,33H31V34H30zM31,33H32V34H31zM33,33H34V34H33zM34,33H35V34H34zM35,33H36V34H35zM3,34H4V35H3zM9,34H10V35H9zM13,34H14V35H13zM16,34H17V35H16zM17,34H18V35H17zM25,34H26V35H25zM27,34H28V35H27zM30,34H31V35H30zM31,34H32V35H31zM32,34H33V35H32zM33,34H34V35H33zM3,35H4V36H3zM4,35H5V36H4zM5,35H6V36H5zM6,35H7V36H6zM7,35H8V36H7zM8,35H9V36H8zM9,35H10V36H9zM11,35H12V36H11zM13,35H14V36H13zM14,35H15V36H14zM15,35H16V36H15zM17,35H18V36H17zM18,35H19V36H18zM19,35H20V36H19zM20,35H21V36H20zM25,35H26V36H25zM26,35H27V36H26zM27,35H28V36H27zM28,35H29V36H28zM30,35H31V36H30zM34,35H35V36H34z" id="qr-path" fill="#000000" fill-opacity="1" fill-rule="nonzero" stroke="none"/></svg>